<svg width="70" height="77" viewBox="0 0 70 77" fill="none" xmlns="http://www.w3.org/2000/svg">
<path d="M12.493 50.0458L21.7249 40.6133H48.9217L57.5894 50.0458" stroke="white" stroke-width="2" stroke-miterlimit="10" stroke-linecap="round" stroke-linejoin="round"/>
<path d="M43.2817 20.5877C43.2817 25.1376 39.5959 28.8254 35.0466 28.8254C30.4967 28.8254 26.8089 25.1376 26.8089 20.5877C26.8089 16.0411 30.4967 12.3533 35.0466 12.3533C39.5952 12.3533 43.2817 16.0411 43.2817 20.5877Z" stroke="white" stroke-width="2" stroke-miterlimit="10" stroke-linecap="round" stroke-linejoin="round"/>
<path d="M38.1862 20.587C38.1862 22.3198 36.7821 23.7267 35.0498 23.7267C33.3163 23.7267 31.9114 22.3205 31.9114 20.587C31.9114 18.8554 33.3163 17.4492 35.0498 17.4492C36.7821 17.4492 38.1862 18.8547 38.1862 20.587Z" stroke="white" stroke-width="2" stroke-miterlimit="10" stroke-linecap="round" stroke-linejoin="round"/>
<path d="M23.3645 33.0899C23.3645 33.5299 23.0064 33.888 22.565 33.888C22.1216 33.888 21.7629 33.5299 21.7629 33.0899C21.7629 32.6465 22.1216 32.2871 22.565 32.2871C23.0064 32.2871 23.3645 32.6465 23.3645 33.0899Z" stroke="white" stroke-width="2" stroke-miterlimit="10" stroke-linecap="round" stroke-linejoin="round"/>
<path d="M49.4183 33.0899C49.4183 33.5299 49.0583 33.888 48.6155 33.888C48.1721 33.888 47.8161 33.5299 47.8161 33.0899C47.8161 32.6465 48.1721 32.2871 48.6155 32.2871C49.0576 32.2871 49.4183 32.6465 49.4183 33.0899Z" stroke="white" stroke-width="2" stroke-miterlimit="10" stroke-linecap="round" stroke-linejoin="round"/>
<path d="M9.15594 32.2873V6.68206C9.15594 6.68206 15.6388 1 35.0439 1C54.4504 1 60.1751 6.68206 60.1751 6.68206V30.8085" stroke="white" stroke-width="2" stroke-miterlimit="10" stroke-linecap="round" stroke-linejoin="round"/>
<path d="M42.9984 22.6743C49.2965 24.0992 55.276 27.2589 60.1746 32.1582" stroke="white" stroke-width="2" stroke-miterlimit="10" stroke-linecap="round" stroke-linejoin="round"/>
<path d="M9.91266 32.2865C14.7533 27.4472 20.6247 24.2842 26.8068 22.7966" stroke="white" stroke-width="2" stroke-miterlimit="10" stroke-linecap="round" stroke-linejoin="round"/>
<path d="M60.1791 31.8847C60.1791 31.8847 67.0439 27.1795 68.2194 34.2404C69.3969 41.2979 61.3739 42.4741 61.3739 42.4741" stroke="white" stroke-width="2" stroke-miterlimit="10" stroke-linecap="round" stroke-linejoin="round"/>
<path d="M9.15798 31.8847C9.15798 31.8847 2.29577 27.1795 1.11762 34.2404C-0.0578605 41.2979 7.96449 42.4741 7.96449 42.4741" stroke="white" stroke-width="2" stroke-miterlimit="10" stroke-linecap="round" stroke-linejoin="round"/>
<path d="M3.62872 75.3504C3.62872 66.1259 11.0917 58.6643 20.3162 58.6643" stroke="white" stroke-width="2" stroke-miterlimit="10" stroke-linecap="round" stroke-linejoin="round"/>
<path d="M66.8119 75.3504C66.8119 66.1259 59.3503 58.6643 50.1278 58.6643" stroke="white" stroke-width="2" stroke-miterlimit="10" stroke-linecap="round" stroke-linejoin="round"/>
<path d="M9.7572 31.711C10.5553 28.0625 12.1155 24.7014 14.2638 21.8037" stroke="white" stroke-width="2" stroke-miterlimit="10" stroke-linecap="round" stroke-linejoin="round"/>
<path d="M60.8967 38.6675C60.1813 52.3645 48.8792 63.2519 35.0461 63.2519C21.2116 63.2519 9.9162 52.3712 9.19611 38.6788" stroke="white" stroke-width="2" stroke-miterlimit="10" stroke-linecap="round" stroke-linejoin="round"/>
<path d="M56.321 22.4949C58.0893 25.0492 59.4121 27.9369 60.1762 31.0446" stroke="white" stroke-width="2" stroke-miterlimit="10" stroke-linecap="round" stroke-linejoin="round"/>
</svg>
