<svg width="32" height="32" viewBox="0 0 32 32" fill="none" xmlns="http://www.w3.org/2000/svg">
<circle cx="15.8209" cy="15.8209" r="15.3209" stroke="white"/>
<path d="M12.2228 9.27174C10.5955 9.27174 9.2716 10.5955 9.2716 12.2227V18.6141C9.2716 20.2414 10.5955 21.5653 12.2228 21.5653H18.6141C20.2414 21.5653 21.5652 20.2414 21.5652 18.6141V12.2227C21.5652 10.5955 20.2414 9.27174 18.6141 9.27174H12.2228V9.27174ZM20.2934 11.4021C20.2934 11.9065 19.8846 12.3152 19.3804 12.3152C18.8762 12.3152 18.4672 11.9065 18.4672 11.4021C18.4672 10.8979 18.8762 10.4889 19.3804 10.4889C19.8846 10.4889 20.2934 10.8979 20.2934 11.4021ZM15.4184 12.8912C14.0249 12.8912 12.8912 14.0249 12.8912 15.4185C12.8912 16.812 14.0249 17.9457 15.4184 17.9457C16.812 17.9457 17.9457 16.812 17.9457 15.4185C17.9457 14.0249 16.812 12.8912 15.4184 12.8912ZM15.4184 19.2173C13.3237 19.2173 11.6194 17.5133 11.6194 15.4185C11.6194 13.3237 13.3237 11.6194 15.4184 11.6194C17.5131 11.6194 19.2174 13.3237 19.2174 15.4185C19.2174 17.5133 17.5131 19.2173 15.4184 19.2173V19.2173ZM18.6141 22.837H12.2228C9.89437 22.837 8 20.9427 8 18.6141V12.2227C8 9.89437 9.89437 8 12.2228 8H18.6141C20.9425 8 22.837 9.89437 22.837 12.2227V18.6141C22.837 20.9427 20.9425 22.837 18.6141 22.837Z" fill="white"/>
</svg>
