<svg width="14" height="10" viewBox="0 0 14 10" fill="none" xmlns="http://www.w3.org/2000/svg">
<path d="M1.07325 4.82325L4.82325 1.07325C4.92091 0.975584 5.07912 0.975584 5.17676 1.07325C5.27442 1.17091 5.27442 1.32912 5.17676 1.42676L1.85351 4.75001L12.75 4.75001C12.8882 4.75001 13 4.86183 13 5.00001C13 5.1382 12.8882 5.25002 12.75 5.25002L1.85351 5.25002L5.17676 8.57325C5.27442 8.67091 5.27442 8.82912 5.17676 8.92676C5.12794 8.97558 5.06395 9 4.99999 9C4.93603 9 4.87207 8.97558 4.82322 8.92676L1.07323 5.17676C0.975587 5.07912 0.975587 4.92091 1.07325 4.82325Z" fill="#37314D" stroke="#37314D"/>
</svg>
