<svg width="28" height="18" viewBox="0 0 28 18" fill="none" xmlns="http://www.w3.org/2000/svg">
<path fill-rule="evenodd" clip-rule="evenodd" d="M1.16048 15.8423V2.15773C1.16048 1.62549 1.68776 1.15773 2.21582 1.15773H24.7962C25.3242 1.15773 25.8515 1.62549 25.8515 2.15773V15.8423C25.8515 16.3745 25.3242 16.8423 24.7962 16.8423H2.21582C1.68776 16.8423 1.16048 16.3745 1.16048 15.8423ZM0 2.1049V15.8951C0 16.2922 0.191597 16.7661 0.413568 17.0614C0.810781 17.589 1.48526 18 2.26878 18H24.7432C25.4169 18 25.931 17.7249 26.2939 17.3893C26.6857 17.0272 27.012 16.4413 27.012 15.8951V2.1049C27.012 1.53613 26.6304 0.897436 26.3258 0.631702C25.9473 0.299923 25.4535 0 24.7432 0H2.26878C1.05378 0 0 1.01476 0 2.1049Z" fill="#03BABD"/>
<path fill-rule="evenodd" clip-rule="evenodd" d="M3.37622 4.99988C3.37622 5.57098 3.76642 5.62615 4.48452 6.10478C6.54769 7.48085 8.81647 8.85847 10.889 10.2423C11.1203 10.3969 11.3002 10.4979 11.5331 10.6526L13.5059 11.895L23.1387 5.71472C24.0149 5.18636 23.5764 4.55155 23.1418 4.49328C22.8038 4.44821 21.4868 5.39227 21.1449 5.62071L16.7233 8.47308C16.4009 8.68675 13.6033 10.5259 13.5059 10.5259C13.3992 10.5259 9.526 7.98279 9.06415 7.69452C8.8375 7.55311 8.65603 7.41713 8.43094 7.27339L5.89813 5.64169C5.57257 5.42413 4.21348 4.47619 3.91051 4.48939C3.66829 4.4995 3.37622 4.70074 3.37622 4.99988Z" fill="#03BABD"/>
<path fill-rule="evenodd" clip-rule="evenodd" d="M2.79596 14.0529C2.79596 14.3606 3.06856 14.6318 3.3762 14.6318C3.69787 14.6318 5.15821 13.5518 5.59202 13.2635L8.47298 11.3474C8.71365 11.1873 9.02129 11.0545 9.02129 10.6846C9.02129 10.3769 8.74947 10.105 8.44105 10.105C8.10225 10.105 4.02576 12.9224 3.33414 13.3793C3.10438 13.5308 2.79596 13.6893 2.79596 14.0529Z" fill="#03BABD"/>
<path fill-rule="evenodd" clip-rule="evenodd" d="M17.9906 10.6846C17.9906 11.1213 18.711 11.4616 19.2352 11.8105L22.8413 14.213C23.0274 14.3319 23.3514 14.6318 23.6357 14.6318C23.9628 14.6318 24.7385 14.0762 23.7097 13.4002C23.0157 12.9434 18.9104 10.105 18.5708 10.105C18.2624 10.105 17.9906 10.3769 17.9906 10.6846Z" fill="#03BABD"/>
</svg>
