<svg width="22" height="22" viewBox="0 0 22 22" fill="none" xmlns="http://www.w3.org/2000/svg">
<path d="M21.3776 16.1458L18.3075 13.0756C17.211 11.9791 15.3469 12.4178 14.9083 13.8432C14.5794 14.83 13.4829 15.3783 12.4961 15.1589C10.3031 14.6107 7.34259 11.7598 6.79434 9.4572C6.46539 8.47032 7.12329 7.37383 8.11013 7.04493C9.53556 6.60634 9.97416 4.74231 8.87767 3.64582L5.8075 0.575656C4.93031 -0.191885 3.61453 -0.191885 2.84699 0.575656L0.763661 2.65898C-1.31966 4.85196 0.982959 10.6633 6.13645 15.8168C11.2899 20.9703 17.1013 23.3826 19.2943 21.1896L21.3776 19.1063C22.1452 18.2291 22.1452 16.9133 21.3776 16.1458Z" fill="white"/>
</svg>
