<svg width="21" height="21" viewBox="0 0 21 21" fill="none" xmlns="http://www.w3.org/2000/svg">
<path fill-rule="evenodd" clip-rule="evenodd" d="M5.94746 0.765454C7.01584 0.716835 7.35721 0.704941 10.0774 0.704941H10.0743C12.7953 0.704941 13.1354 0.716835 14.2038 0.765454C15.2701 0.814282 15.9983 0.983094 16.6368 1.23078C17.2962 1.4864 17.8534 1.82861 18.4105 2.38575C18.9677 2.94248 19.3099 3.50129 19.5665 4.16005C19.8128 4.7969 19.9818 5.52473 20.0319 6.59102C20.0799 7.6594 20.0924 8.00077 20.0924 10.721C20.0924 13.4411 20.0799 13.7817 20.0319 14.8501C19.9818 15.9159 19.8128 16.644 19.5665 17.281C19.3099 17.9396 18.9677 18.4984 18.4105 19.0551C17.854 19.6123 17.296 19.9553 16.6375 20.2111C16.0002 20.4588 15.2715 20.6276 14.2052 20.6765C13.1369 20.7251 12.7965 20.737 10.0761 20.737C7.35617 20.737 7.015 20.7251 5.94663 20.6765C4.88055 20.6276 4.15251 20.4588 3.51524 20.2111C2.85689 19.9553 2.29808 19.6123 1.74157 19.0551C1.18464 18.4984 0.842422 17.9396 0.586388 17.2808C0.338909 16.644 0.170097 15.9161 0.12106 14.8499C0.0726496 13.7815 0.0605469 13.4411 0.0605469 10.721C0.0605469 8.00077 0.0730669 7.65919 0.120852 6.59081C0.168845 5.52494 0.337865 4.7969 0.586179 4.15984C0.842839 3.50129 1.18505 2.94248 1.74219 2.38575C2.29892 1.82882 2.85773 1.48661 3.51649 1.23078C4.15334 0.983094 4.88117 0.814282 5.94746 0.765454ZM9.74338 2.50997C9.54084 2.50988 9.35315 2.50979 9.17869 2.51006V2.50756C7.31195 2.50965 6.95388 2.52217 6.0299 2.5639C5.05334 2.60876 4.52312 2.77152 4.17005 2.90924C3.70264 3.0912 3.36877 3.30822 3.01821 3.65878C2.66765 4.00934 2.45022 4.3432 2.26868 4.81062C2.13158 5.16368 1.96841 5.6937 1.92375 6.67026C1.87576 7.72611 1.86616 8.04162 1.86616 10.7163C1.86616 13.391 1.87576 13.7082 1.92375 14.764C1.9682 15.7406 2.13158 16.2706 2.26868 16.6233C2.45064 17.0909 2.66765 17.4239 3.01821 17.7745C3.36877 18.125 3.70264 18.342 4.17005 18.5236C4.52333 18.6607 5.05334 18.8239 6.0299 18.8689C7.08576 18.9169 7.40272 18.9274 10.0772 18.9274C12.7515 18.9274 13.0687 18.9169 14.1245 18.8689C15.1011 18.8243 15.6315 18.6615 15.9842 18.5238C16.4518 18.3423 16.7846 18.1252 17.1352 17.7747C17.4857 17.4243 17.7032 17.0915 17.8847 16.6241C18.0218 16.2714 18.185 15.7414 18.2296 14.7649C18.2776 13.709 18.288 13.3918 18.288 10.7188C18.288 8.04579 18.2776 7.72862 18.2296 6.67276C18.1852 5.6962 18.0218 5.16619 17.8847 4.81354C17.7027 4.34613 17.4857 4.01226 17.1352 3.6617C16.7848 3.31114 16.4516 3.09412 15.9842 2.91258C15.6311 2.77549 15.1011 2.61231 14.1245 2.56766C13.0684 2.51966 12.7515 2.51006 10.0772 2.51006C9.96162 2.51006 9.85042 2.51001 9.74338 2.50997Z" fill="white"/>
<path fill-rule="evenodd" clip-rule="evenodd" d="M15.4236 4.17315C14.76 4.17315 14.2217 4.71088 14.2217 5.37465C14.2217 6.03821 14.76 6.57657 15.4236 6.57657C16.0872 6.57657 16.6255 6.03821 16.6255 5.37465C16.6255 4.71109 16.0872 4.17273 15.4236 4.17273V4.17315Z" fill="white"/>
<path fill-rule="evenodd" clip-rule="evenodd" d="M4.93359 10.7205C4.93359 7.87989 7.23665 5.57683 10.0772 5.57683H10.077C12.9176 5.57683 15.22 7.87989 15.22 10.7205C15.22 13.5611 12.9178 15.8631 10.0772 15.8631C7.23665 15.8631 4.93359 13.5611 4.93359 10.7205ZM13.4161 10.7202C13.4161 8.87623 11.9212 7.38155 10.0774 7.38155C8.23343 7.38155 6.73875 8.87623 6.73875 10.7202C6.73875 12.564 8.23343 14.0589 10.0774 14.0589C11.9212 14.0589 13.4161 12.564 13.4161 10.7202Z" fill="white"/>
</svg>
