<svg width="30" height="30" viewBox="0 0 30 30" fill="none" xmlns="http://www.w3.org/2000/svg">
<circle cx="15" cy="15" r="14.5" stroke="white"/>
<g clip-path="url(#clip0)">
<path d="M21.3335 17.8345C21.0072 17.4434 20.6386 17.0943 20.2821 16.7566C20.1568 16.638 20.0272 16.5152 19.9024 16.3934C19.9024 16.3934 19.9023 16.3933 19.9023 16.3933C19.7344 16.2296 19.6523 16.1133 19.6437 16.0275C19.6352 15.9431 19.6929 15.8179 19.8255 15.6329C20.0238 15.3546 20.2352 15.0758 20.4397 14.8062C20.6215 14.5666 20.8094 14.3187 20.9895 14.0695L21.0299 14.0135C21.3813 13.5272 21.7447 13.0242 21.9394 12.4113C21.995 12.2356 22.0527 11.9756 21.9135 11.7473C21.7741 11.5189 21.5158 11.4513 21.3338 11.4203C21.2448 11.405 21.1605 11.4038 21.082 11.4038L18.8025 11.4017C18.4084 11.3952 18.135 11.582 17.986 11.9571C17.8667 12.2567 17.7259 12.6039 17.5627 12.9332C17.2506 13.5691 16.8539 14.3014 16.279 14.9116L16.2535 14.9388C16.2143 14.9805 16.1504 15.0489 16.1175 15.0645C16.0552 15.0254 15.9834 14.8015 15.9867 14.6843C15.9867 14.6814 15.9868 14.6785 15.9868 14.6756L15.9847 12.0417C15.9847 12.0283 15.9838 12.015 15.982 12.0017C15.9309 11.6259 15.8312 11.2492 15.2365 11.1319C15.2174 11.1281 15.198 11.1262 15.1786 11.1262H12.8075C12.3614 11.1262 12.1254 11.3305 11.9363 11.552C11.8815 11.6165 11.736 11.788 11.8101 11.9976C11.8851 12.2097 12.1086 12.252 12.182 12.2659C12.4404 12.3149 12.574 12.461 12.6154 12.7402C12.6971 13.2827 12.7071 13.863 12.6469 14.5656C12.6302 14.7543 12.5989 14.8977 12.5485 15.0169C12.5346 15.0499 12.5223 15.0704 12.5138 15.0824C12.5001 15.0769 12.4789 15.0664 12.4495 15.0462C12.2679 14.922 12.1311 14.7288 11.9987 14.5421C11.4701 13.7958 11.0255 12.9716 10.6393 12.0219C10.4803 11.6328 10.1813 11.4154 9.79793 11.4098C9.06761 11.3976 8.39217 11.3979 7.73369 11.4107C7.42312 11.4161 7.20532 11.5139 7.08626 11.7013C6.96705 11.8892 6.97141 12.1286 7.09927 12.4132C8.01322 14.4456 8.84308 15.924 9.78996 17.207C10.4567 18.1103 11.1278 18.7373 11.902 19.1803C12.7155 19.6457 13.6329 19.8738 14.6972 19.8737C14.8182 19.8737 14.9414 19.8708 15.0661 19.8648C15.7228 19.8349 15.9899 19.5737 16.0191 18.9342C16.0354 18.5962 16.073 18.3224 16.2036 18.0845C16.2401 18.0179 16.2813 17.9733 16.3137 17.9651C16.3482 17.9565 16.4094 17.9776 16.4775 18.0218C16.6019 18.1026 16.7091 18.2122 16.7972 18.3084C16.8865 18.4061 16.9767 18.5071 17.064 18.6048C17.2499 18.8127 17.442 19.0277 17.6433 19.2328C18.0987 19.697 18.6236 19.9098 19.2042 19.8652L21.2903 19.8662C21.2904 19.8662 21.2904 19.8662 21.2904 19.8662C21.2971 19.8662 21.3037 19.866 21.3103 19.8656C21.5509 19.8495 21.7589 19.7163 21.8811 19.5C22.0282 19.2395 22.026 18.9095 21.8751 18.617C21.7176 18.3128 21.5132 18.0511 21.3335 17.8345ZM21.3608 19.2062C21.332 19.2571 21.2965 19.2664 21.2782 19.2686L19.1926 19.2677C19.1925 19.2677 19.1924 19.2677 19.1924 19.2677C19.1841 19.2677 19.1759 19.268 19.1677 19.2687C18.7568 19.3029 18.4076 19.1585 18.0698 18.8142C17.8783 18.6191 17.6908 18.4094 17.5096 18.2066C17.4212 18.1078 17.3299 18.0055 17.2382 17.9051C17.1244 17.7808 16.9837 17.638 16.803 17.5207C16.5324 17.345 16.3082 17.3503 16.1677 17.3857C16.0288 17.4207 15.8313 17.5206 15.6796 17.7973C15.4832 18.1553 15.4399 18.5415 15.4223 18.9063C15.4121 19.1294 15.3743 19.1884 15.3586 19.2034C15.3379 19.223 15.2689 19.2575 15.0386 19.268C13.9319 19.32 13.0031 19.1219 12.1988 18.6617C11.4991 18.2614 10.8865 17.6864 10.2708 16.8522C9.35015 15.6048 8.54009 14.1602 7.64434 12.1683C7.61188 12.0962 7.60186 12.0511 7.59896 12.027C7.62181 12.0195 7.66646 12.0097 7.74474 12.0082C8.39654 11.9956 9.06492 11.9952 9.78864 12.0073C9.88772 12.0088 10.0005 12.0385 10.086 12.2475C10.4895 13.2398 10.9557 14.1033 11.5111 14.8876C11.6586 15.0957 11.8422 15.3548 12.112 15.5394C12.3591 15.7086 12.5596 15.7006 12.6844 15.664C12.8092 15.6274 12.9824 15.5257 13.0991 15.2495C13.1743 15.0715 13.2198 14.871 13.2423 14.6177C13.3067 13.8661 13.2953 13.2413 13.2065 12.6519C13.1438 12.2297 12.9258 11.9246 12.5824 11.7689C12.6434 11.7371 12.7121 11.7239 12.8075 11.7239H15.1477C15.2794 11.7534 15.3054 11.7881 15.3144 11.7999C15.3523 11.8504 15.374 11.9696 15.3872 12.0628L15.3892 14.6724C15.3839 14.9226 15.5055 15.4774 15.9195 15.6296C15.9229 15.6308 15.9263 15.632 15.9297 15.6331C16.3066 15.7563 16.5559 15.4902 16.6897 15.3473L16.7136 15.3219C17.3433 14.6535 17.7674 13.8725 18.0987 13.1976C18.2714 12.8492 18.4177 12.4887 18.5413 12.178C18.6032 12.0221 18.6595 11.9965 18.7939 11.9993C18.7957 11.9994 18.7975 11.9994 18.7994 11.9994L21.0818 12.0014C21.1349 12.0014 21.1903 12.002 21.2332 12.0094C21.342 12.0279 21.3868 12.0504 21.4016 12.0598C21.4031 12.0771 21.4027 12.1269 21.3699 12.2308C21.2043 12.752 20.8843 13.1948 20.5456 13.6636L20.5052 13.7197C20.3292 13.9632 20.1434 14.2082 19.9637 14.4452C19.7566 14.7183 19.5425 15.0006 19.3395 15.2855C18.9055 15.8911 18.9436 16.2929 19.4852 16.8212C19.6132 16.9461 19.7444 17.0704 19.8713 17.1906C20.2311 17.5314 20.571 17.8533 20.8743 18.2168C21.0331 18.4082 21.2131 18.6381 21.3443 18.8914C21.4127 19.0241 21.3959 19.1439 21.3608 19.2062Z" fill="white"/>
<path d="M9.17918 12.9698C9.13529 12.883 9.09179 12.7959 9.04869 12.7086C8.97557 12.5607 8.7965 12.5 8.64846 12.5731C8.50051 12.6462 8.43981 12.8254 8.51291 12.9733C8.55682 13.0622 8.60115 13.1509 8.64583 13.2394C8.69842 13.3434 8.80362 13.4034 8.91272 13.4034C8.95802 13.4034 9.00404 13.3931 9.04725 13.3712C9.19459 13.2968 9.25362 13.1171 9.17918 12.9698Z" fill="white"/>
<path d="M11.0534 16.0696C10.5635 15.4058 10.1051 14.6847 9.65215 13.8653C9.57232 13.7209 9.3905 13.6686 9.24609 13.7484C9.10169 13.8282 9.04931 14.01 9.12914 14.1544C9.59485 14.9969 10.067 15.7394 10.5726 16.4245C10.6312 16.5039 10.7217 16.5459 10.8133 16.5459C10.8749 16.5459 10.9371 16.5269 10.9905 16.4874C11.1232 16.3895 11.1514 16.2024 11.0534 16.0696Z" fill="white"/>
</g>
<defs>
<clipPath id="clip0">
<rect width="15" height="15" fill="white" transform="translate(7 8)"/>
</clipPath>
</defs>
</svg>
