<svg width="30" height="30" viewBox="0 0 30 30" fill="none" xmlns="http://www.w3.org/2000/svg">
<circle cx="15" cy="15" r="14.5" stroke="white"/>
<path d="M18.9396 8H12.0604C9.82144 8 8 9.82144 8 12.0604V18.9397C8 21.1785 9.82144 23 12.0604 23H18.9397C21.1785 23 23 21.1785 23 18.9397V12.0604C23 9.82144 21.1785 8 18.9396 8V8ZM22.1206 18.9397C22.1206 20.6936 20.6936 22.1206 18.9396 22.1206H12.0604C10.3063 22.1206 8.87936 20.6936 8.87936 18.9397V12.0604C8.87936 10.3063 10.3063 8.87936 12.0604 8.87936H18.9397C20.6936 8.87936 22.1206 10.3063 22.1206 12.0604V18.9397Z" fill="white"/>
<path d="M15.4999 11.3985C13.2383 11.3985 11.3984 13.2384 11.3984 15.5C11.3984 17.7616 13.2383 19.6014 15.4999 19.6014C17.7614 19.6014 19.6013 17.7616 19.6013 15.5C19.6013 13.2384 17.7614 11.3985 15.4999 11.3985ZM15.4999 18.7221C13.7233 18.7221 12.2778 17.2767 12.2778 15.5C12.2778 13.7234 13.7233 12.2779 15.4999 12.2779C17.2766 12.2779 18.7219 13.7234 18.7219 15.5C18.7219 17.2767 17.2766 18.7221 15.4999 18.7221Z" fill="white"/>
<path d="M19.6995 9.94194C19.0311 9.94194 18.4875 10.4856 18.4875 11.1539C18.4875 11.8222 19.0311 12.3659 19.6995 12.3659C20.3678 12.3659 20.9115 11.8222 20.9115 11.1539C20.9115 10.4855 20.3678 9.94194 19.6995 9.94194ZM19.6995 11.4864C19.5161 11.4864 19.3669 11.3372 19.3669 11.1539C19.3669 10.9704 19.5161 10.8213 19.6995 10.8213C19.8829 10.8213 20.0322 10.9704 20.0322 11.1539C20.0322 11.3372 19.8829 11.4864 19.6995 11.4864Z" fill="white"/>
<circle cx="15" cy="15" r="14.5" stroke="white"/>
<path d="M18.9396 8H12.0604C9.82144 8 8 9.82144 8 12.0604V18.9397C8 21.1785 9.82144 23 12.0604 23H18.9397C21.1785 23 23 21.1785 23 18.9397V12.0604C23 9.82144 21.1785 8 18.9396 8V8ZM22.1206 18.9397C22.1206 20.6936 20.6936 22.1206 18.9396 22.1206H12.0604C10.3063 22.1206 8.87936 20.6936 8.87936 18.9397V12.0604C8.87936 10.3063 10.3063 8.87936 12.0604 8.87936H18.9397C20.6936 8.87936 22.1206 10.3063 22.1206 12.0604V18.9397Z" fill="white"/>
<path d="M15.4999 11.3985C13.2383 11.3985 11.3984 13.2384 11.3984 15.5C11.3984 17.7616 13.2383 19.6014 15.4999 19.6014C17.7614 19.6014 19.6013 17.7616 19.6013 15.5C19.6013 13.2384 17.7614 11.3985 15.4999 11.3985ZM15.4999 18.7221C13.7233 18.7221 12.2778 17.2767 12.2778 15.5C12.2778 13.7234 13.7233 12.2779 15.4999 12.2779C17.2766 12.2779 18.7219 13.7234 18.7219 15.5C18.7219 17.2767 17.2766 18.7221 15.4999 18.7221Z" fill="white"/>
<path d="M19.6995 9.94194C19.0311 9.94194 18.4875 10.4856 18.4875 11.1539C18.4875 11.8222 19.0311 12.3659 19.6995 12.3659C20.3678 12.3659 20.9115 11.8222 20.9115 11.1539C20.9115 10.4855 20.3678 9.94194 19.6995 9.94194ZM19.6995 11.4864C19.5161 11.4864 19.3669 11.3372 19.3669 11.1539C19.3669 10.9704 19.5161 10.8213 19.6995 10.8213C19.8829 10.8213 20.0322 10.9704 20.0322 11.1539C20.0322 11.3372 19.8829 11.4864 19.6995 11.4864Z" fill="white"/>
</svg>
