<svg width="11" height="11" viewBox="0 0 11 11" fill="none" xmlns="http://www.w3.org/2000/svg">
<path d="M10.3883 3.78069L7.17009 3.29091L5.73146 0.236756C5.69216 0.153135 5.62752 0.0854415 5.54767 0.0442947C5.3474 -0.0592361 5.10403 0.0270396 5.0039 0.236756L3.56526 3.29091L0.347027 3.78069C0.258301 3.79397 0.17718 3.83777 0.115071 3.90413C0.0399853 3.98495 -0.00139035 4.09368 3.56755e-05 4.20642C0.00146171 4.31916 0.0455728 4.4267 0.122676 4.50541L2.45111 6.88264L1.90101 10.2394C1.88811 10.3175 1.89636 10.3978 1.92483 10.4712C1.95329 10.5447 2.00084 10.6083 2.06207 10.6548C2.1233 10.7014 2.19577 10.7291 2.27125 10.7347C2.34673 10.7404 2.42222 10.7237 2.48914 10.6867L5.36768 9.10191L8.24622 10.6867C8.3248 10.7305 8.41607 10.7451 8.50352 10.7292C8.72407 10.6894 8.87237 10.4704 8.83435 10.2394L8.28424 6.88264L10.6127 4.50541C10.6761 4.44037 10.7179 4.35542 10.7306 4.26251C10.7648 4.03023 10.6101 3.8152 10.3883 3.78069Z" fill="#F4C151"/>
</svg>
