<svg width="59" height="59" viewBox="0 0 59 59" fill="none" xmlns="http://www.w3.org/2000/svg">
<path d="M29.5 0C37.6117 0 44.9876 3.32006 50.3338 8.66624C55.6799 14.0124 59 21.3847 59 29.5C59 37.6117 55.6799 44.9876 50.3338 50.3338C44.9876 55.6799 37.6117 59 29.5 59C21.3883 59 14.0124 55.6799 8.66624 50.3338C3.32006 44.9876 0 37.6117 0 29.5C0 21.3883 3.32006 14.0124 8.66624 8.66624C14.0124 3.32006 21.3883 0 29.5 0V0ZM29.5 0.967748C21.6529 0.967748 14.5198 4.17908 9.34765 9.34765C4.17908 14.5198 0.967748 21.6529 0.967748 29.5C0.967748 37.3471 4.17908 44.4802 9.34765 49.6524C14.5198 54.8209 21.6529 58.0323 29.5 58.0323C37.3471 58.0323 44.4802 54.8209 49.6524 49.6524C54.8209 44.4802 58.0323 37.3471 58.0323 29.5C58.0323 21.6529 54.8209 14.5198 49.6524 9.34765C44.4802 4.17908 37.3471 0.967748 29.5 0.967748V0.967748Z" fill="white"/>
<path d="M20.7639 16.0911C26.7413 20.4672 32.7911 24.7705 38.7974 29.1066C39.0146 29.2632 39.0653 29.5657 38.9097 29.7843C38.8771 29.8317 38.8372 29.8681 38.7902 29.9009L20.7639 42.9091C20.5467 43.0658 20.2462 43.0147 20.0905 42.7961C20.029 42.7087 20 42.6103 20 42.5119V16.4883C20 16.2186 20.2172 16 20.4851 16C20.5901 16 20.6843 16.0364 20.7639 16.0911ZM37.6896 29.5001L20.9667 17.4356V41.5682L37.6896 29.5001Z" fill="white"/>
</svg>
