<svg width="19" height="15" viewBox="0 0 19 15" fill="none" xmlns="http://www.w3.org/2000/svg">
<path d="M1.7713 4.46952C2.00475 4.63425 2.70846 5.12352 3.88246 5.93707C5.0565 6.75061 5.9559 7.37702 6.58068 7.81633C6.64932 7.86448 6.79516 7.96916 7.01826 8.13051C7.24139 8.29196 7.4268 8.42243 7.57433 8.52195C7.72197 8.62143 7.90045 8.73304 8.10995 8.85658C8.31937 8.98001 8.51679 9.07286 8.70216 9.13433C8.88756 9.19629 9.05919 9.22699 9.21707 9.22699H9.22743H9.23781C9.3957 9.22699 9.56739 9.19626 9.7528 9.13433C9.9381 9.07286 10.1357 8.97991 10.3449 8.85658C10.5543 8.73289 10.7328 8.6214 10.8804 8.52195C11.0281 8.42243 11.2133 8.29196 11.4365 8.13051C11.6596 7.96902 11.8056 7.86448 11.8742 7.81633C12.5058 7.37702 14.1125 6.26131 16.6939 4.4693C17.195 4.11931 17.6137 3.69699 17.9501 3.20263C18.2867 2.7085 18.4549 2.19012 18.4549 1.64779C18.4549 1.1946 18.2917 0.806655 17.9655 0.484C17.6394 0.161273 17.2532 0 16.8071 0H1.64769C1.11907 0 0.712258 0.178479 0.427333 0.535438C0.142444 0.892468 0 1.33874 0 1.87421C0 2.30674 0.188868 2.77545 0.566423 3.28004C0.943941 3.78468 1.3457 4.1812 1.7713 4.46952Z" fill="white"/>
<path d="M17.4249 5.57122C15.1732 7.09526 13.4634 8.27969 12.2964 9.12425C11.9051 9.4125 11.5876 9.63751 11.3438 9.79874C11.1 9.96009 10.7758 10.1249 10.3706 10.293C9.96561 10.4614 9.58816 10.5453 9.23795 10.5453H9.22745H9.2171C8.86696 10.5453 8.4893 10.4614 8.08429 10.293C7.67929 10.1249 7.35483 9.96009 7.1111 9.79874C6.86744 9.63751 6.54987 9.4125 6.15857 9.12425C5.23166 8.4446 3.52557 7.2601 1.04025 5.57122C0.648808 5.3105 0.302094 5.01165 0 4.67529V12.852C0 13.3055 0.161273 13.6932 0.484 14.0159C0.806654 14.3387 1.19463 14.5 1.64779 14.5H16.8072C17.2602 14.5 17.6482 14.3387 17.9709 14.0159C18.2937 13.6931 18.4549 13.3055 18.4549 12.852V4.67529C18.1596 5.00469 17.8164 5.30354 17.4249 5.57122Z" fill="white"/>
</svg>
