<svg width="17" height="22" viewBox="0 0 17 22" fill="none" xmlns="http://www.w3.org/2000/svg">
<path d="M8.58421 4.67725C9.64883 4.67725 10.6164 5.13121 11.3172 5.86252C12.0181 6.59384 12.4531 7.60342 12.4531 8.71394C12.4531 9.82483 12.0181 10.8344 11.3172 11.5657C10.6164 12.297 9.64883 12.751 8.58456 12.751C7.51994 12.751 6.55241 12.297 5.85155 11.5657C5.15069 10.8344 4.71564 9.82483 4.71564 8.7143C4.71564 7.60342 5.15069 6.59384 5.85155 5.86252C6.55241 5.13121 7.51994 4.67725 8.58421 4.67725ZM8.58456 5.58011C7.75876 5.58011 7.00788 5.93295 6.46346 6.50103C5.91904 7.06911 5.5809 7.85261 5.5809 8.71394C5.5809 9.57545 5.91904 10.3591 6.46346 10.9272C7.00788 11.4953 7.75876 11.8481 8.58421 11.8481C9.41002 11.8481 10.1609 11.4953 10.7053 10.9272C11.2497 10.3591 11.5879 9.57546 11.5879 8.7143C11.5879 7.85261 11.2497 7.06911 10.7053 6.50103C10.1609 5.93295 9.41002 5.58011 8.58456 5.58011Z" fill="#03BABD"/>
<path d="M8.58425 0.113037C10.8518 0.113037 12.9128 1.08054 14.4064 2.63907C15.9 4.19759 16.8272 6.34821 16.8272 8.71389C16.8272 13.3871 8.90976 21.4314 8.88709 21.4547C8.80316 21.5409 8.69379 21.6324 8.5846 21.6324C8.46485 21.6339 8.35669 21.5347 8.2783 21.4531L8.27328 21.4477C8.00332 21.1719 0.341614 13.3055 0.341614 8.71425C0.341614 6.34821 1.26883 4.19759 2.76244 2.63907C4.25605 1.08054 6.3171 0.113037 8.58425 0.113037ZM8.5846 1.0159C6.55608 1.0159 4.71152 1.88229 3.37435 3.27757C2.03718 4.67285 1.20687 6.59758 1.20687 8.71389C1.20687 12.494 7.1654 19.0006 8.58529 20.4975C10.0073 18.9989 15.962 12.4987 15.962 8.71425C15.962 6.59758 15.1317 4.67285 13.7945 3.27757C12.4573 1.88229 10.6128 1.0159 8.5846 1.0159Z" fill="#03BABD"/>
</svg>
