<svg width="23" height="23" viewBox="0 0 23 23" fill="none" xmlns="http://www.w3.org/2000/svg">
<path d="M21.868 19.7823C21.4709 20.2868 20.4242 21.1953 19.8302 21.552C19.749 21.6007 19.6693 21.6358 19.5911 21.6663C19.0121 21.4117 17.9939 20.8706 17.6871 20.485C17.5398 20.2975 17.2706 20.267 17.0856 20.4164C16.9006 20.5673 16.8705 20.8401 17.0179 21.0276C17.2871 21.3691 17.8029 21.709 18.2737 21.9742C17.8977 22.058 17.3743 22.1297 16.7081 22.1297C14.75 22.1297 10.7813 21.4575 6.19589 16.9594C-0.344544 10.5423 0.897672 4.80352 1.06009 4.16944C1.07513 4.11304 1.07814 4.05512 1.07062 3.9972C1.03603 3.76703 1.08415 3.5384 1.21951 3.29604C1.55487 2.68025 2.41811 1.58888 2.89935 1.16972C3.12043 0.976136 3.31744 0.875535 3.46933 0.875535C3.534 0.875535 3.73101 0.875535 4.05435 1.32214L7.69076 6.34759C7.91183 6.65701 7.86371 7.08227 7.58398 7.29567L5.78533 8.67969C5.77781 8.68274 5.76427 8.68731 5.75224 8.69036C5.27851 8.32149 4.63034 7.76514 4.4243 7.44809C4.29647 7.24689 4.02878 7.1905 3.83177 7.32006C3.63325 7.45267 3.57761 7.72093 3.70695 7.92214C3.98366 8.3535 4.65289 8.92204 5.0815 9.26347C4.74012 10.6795 5.82593 12.5696 8.56001 15.3376C10.7392 17.5462 12.3273 18.0096 13.2762 18.0096C13.6928 18.0096 14.0041 17.9151 14.156 17.8267C14.2703 17.7612 14.35 17.6453 14.368 17.5127C14.3771 17.4533 14.3801 17.3679 14.3816 17.2749C14.3816 17.2231 14.3831 17.1332 14.3891 17.0829L15.6764 15.2355C15.8719 14.9611 16.3096 14.891 16.6058 15.0968L21.6815 18.6147C21.9612 18.8098 22.1146 18.9912 22.1387 19.1558C22.1627 19.3159 22.071 19.5262 21.868 19.7823ZM11.5994 1.78704C16.5728 2.979 20.3761 7.04112 21.2875 12.1367C21.3251 12.347 21.5055 12.4949 21.7101 12.4949C21.7341 12.4949 21.7612 12.4918 21.7868 12.4873C22.0199 12.4446 22.1748 12.219 22.1311 11.9827C21.1596 6.54574 17.1036 2.2123 11.7964 0.939554C11.5663 0.886205 11.3347 1.02948 11.2806 1.26422C11.2264 1.49743 11.3693 1.73064 11.5994 1.78704ZM11.0099 5.00777C14.3289 6.03512 16.9247 8.65225 17.9548 12.0102C18.012 12.1961 18.1819 12.315 18.3639 12.315C18.406 12.315 18.4496 12.3089 18.4917 12.2967C18.7173 12.2251 18.8436 11.9812 18.7745 11.751C17.6586 8.11876 14.8508 5.28823 11.261 4.17706C11.0339 4.10542 10.7948 4.2365 10.7256 4.46514C10.6564 4.6953 10.7843 4.93766 11.0099 5.00777ZM22.9869 19.0293C22.9267 18.6086 22.6575 18.2382 22.1657 17.8983L17.0901 14.3789C16.8284 14.1975 16.5231 14.1014 16.2088 14.1014C15.7185 14.1014 15.2599 14.3362 14.9786 14.731L13.6612 16.621C13.5575 16.7673 13.5334 16.9472 13.5274 17.121C13.0236 17.1972 11.5633 17.1515 9.16608 14.7233C6.84858 12.3775 5.75224 10.6536 5.89361 9.58814C5.91917 9.57594 5.93872 9.55003 5.96128 9.53174C6.08159 9.49821 6.19288 9.45553 6.28312 9.38541L8.10132 7.9892C8.75101 7.4923 8.87884 6.52745 8.38406 5.83392L4.74614 0.808468C4.04683 -0.157905 3.2242 -0.258506 2.34141 0.509716C1.78196 0.994427 0.855563 2.1681 0.470566 2.8723C0.260021 3.25031 0.172796 3.64052 0.210393 4.03225C0.0765463 4.59775 -0.216713 6.26223 0.270549 8.58214C0.933766 11.7373 2.72641 14.766 5.59884 17.5843C10.4023 22.2958 14.6207 22.9985 16.7081 23C17.9368 23 18.7925 22.7698 19.1865 22.6022C19.5535 22.6189 19.9159 22.5138 20.2693 22.2988C20.9536 21.8888 22.077 20.9103 22.5372 20.3265C22.9011 19.8707 23.047 19.4455 22.9869 19.0293Z" fill="#03BABD"/>
</svg>
