<svg width="29" height="17" viewBox="0 0 29 17" fill="none" xmlns="http://www.w3.org/2000/svg">
<path fill-rule="evenodd" clip-rule="evenodd" d="M16.2647 16.2211C16.2647 16.2211 16.7744 16.1643 17.0354 15.8835C17.2744 15.6262 17.2661 15.1406 17.2661 15.1406C17.2661 15.1406 17.2343 12.8731 18.2854 12.5383C19.3213 12.2091 20.6514 14.7311 22.063 15.7009C23.1293 16.4341 23.9387 16.2736 23.9387 16.2736L27.7107 16.2211C27.7107 16.2211 29.6831 16.0993 28.748 14.5457C28.6707 14.4184 28.2024 13.3961 25.9442 11.296C23.5782 9.09767 23.8959 9.45322 26.7439 5.65012C28.4787 3.33422 29.172 1.92033 28.9552 1.31576C28.7494 0.737483 27.4732 0.891046 27.4732 0.891046L23.2274 0.917331C23.2274 0.917331 22.9124 0.874444 22.679 1.01417C22.4511 1.15113 22.3033 1.47071 22.3033 1.47071C22.3033 1.47071 21.6321 3.26228 20.7357 4.78684C18.8448 8.00198 18.0893 8.17215 17.7799 7.97293C17.0603 7.50671 17.2399 6.1025 17.2399 5.10504C17.2399 1.98812 17.7122 0.689062 16.3214 0.352883C15.86 0.240824 15.5203 0.167501 14.3393 0.15505C12.8242 0.139832 11.5424 0.160584 10.8159 0.51613C10.3325 0.752701 9.95955 1.28118 10.1874 1.31161C10.4678 1.34897 11.1032 1.48316 11.4402 1.94247C11.8753 2.53597 11.8601 3.86685 11.8601 3.86685C11.8601 3.86685 12.1101 7.53576 11.2758 7.99091C10.704 8.30357 9.91949 7.6658 8.23305 4.74811C7.3698 3.25398 6.71787 1.60214 6.71787 1.60214C6.71787 1.60214 6.59218 1.29363 6.36705 1.12762C6.09495 0.927015 5.71512 0.86476 5.71512 0.86476L1.68063 0.891046C1.68063 0.891046 1.07429 0.907647 0.851913 1.17189C0.654401 1.40569 0.836719 1.89128 0.836719 1.89128C0.836719 1.89128 3.99552 9.29412 7.57283 13.0253C10.8532 16.4452 14.5769 16.2211 14.5769 16.2211H16.2647Z" fill="white"/>
</svg>
