<svg width="32" height="32" viewBox="0 0 32 32" fill="none" xmlns="http://www.w3.org/2000/svg">
<circle cx="15.8209" cy="15.8209" r="15.3209" stroke="white"/>
<path d="M16.9116 10.5893C15.8949 10.5893 14.8802 10.6114 13.886 10.6332C13.047 10.6514 12.18 10.6703 11.3345 10.7362C10.2836 10.8182 9.38005 10.9567 8.96612 11.8261C8.60339 12.5884 8.60421 13.5808 8.60502 14.4564C8.60509 14.5681 8.60516 14.6784 8.60455 14.7865C8.59932 15.7331 8.59776 16.5862 8.63279 17.44C8.67773 18.5367 8.73354 19.9018 9.83341 20.3394C10.491 20.601 11.3412 20.6552 11.962 20.6947C12.5393 20.7315 13.1317 20.737 13.7046 20.7423C13.8878 20.744 14.071 20.7457 14.2542 20.7484C15.495 20.7665 16.7588 20.7379 17.9811 20.71C18.3483 20.7018 18.7154 20.6935 19.0825 20.6863L19.1769 20.6845C20.2381 20.6641 21.3356 20.6431 22.3331 20.3098C23.0827 20.0592 23.3005 19.2455 23.4242 18.4036C23.5251 17.7171 23.5198 17.0003 23.5147 16.3072C23.5137 16.1676 23.5126 16.0281 23.5124 15.8887C23.512 15.6885 23.5135 15.4881 23.5151 15.2878C23.5181 14.8673 23.5213 14.4326 23.5065 14.0086C23.4999 13.8219 23.4904 13.6495 23.4772 13.4815C23.4147 12.6822 23.3223 11.9219 22.8851 11.4033C22.5143 10.9637 21.9064 10.863 21.3155 10.7976C20.5525 10.7129 19.7535 10.6558 18.8728 10.6229C18.2215 10.5985 17.5662 10.5893 16.9116 10.5893ZM15.0657 21.3433C14.7917 21.3433 14.5181 21.3416 14.2453 21.3376C14.0632 21.335 13.881 21.3333 13.6989 21.3316C13.1178 21.3262 12.5169 21.3206 11.9229 21.2828C11.2611 21.2406 10.3547 21.1829 9.607 20.8853C8.14785 20.3048 8.07779 18.595 8.03156 17.4635C7.99605 16.5975 7.99755 15.7373 8.00284 14.7832C8.00345 14.6763 8.00339 14.5673 8.00325 14.4568C8.00244 13.52 8.00155 12.4581 8.42084 11.5771C8.9704 10.4223 10.138 10.2383 11.2868 10.1487C12.1494 10.0815 13.0251 10.0624 13.872 10.044C15.5159 10.0081 17.2149 9.97109 18.8958 10.034C19.7915 10.0675 20.6051 10.1257 21.3832 10.212C22.065 10.2876 22.8354 10.4191 23.349 11.0281C23.8985 11.6796 24.007 12.5391 24.0773 13.4365C24.091 13.6129 24.1011 13.7934 24.1078 13.9884C24.1232 14.4247 24.1199 14.8656 24.1168 15.2919C24.1152 15.4907 24.1138 15.6893 24.1141 15.8877C24.1144 16.026 24.1154 16.1644 24.1164 16.3029C24.1217 17.0179 24.1272 17.7571 24.0198 18.4875C23.8761 19.4658 23.5864 20.5135 22.5274 20.8674C21.4412 21.2304 20.296 21.2525 19.1886 21.2737L19.0944 21.2755C18.728 21.2826 18.3615 21.291 17.9951 21.2993C17.0347 21.321 16.0487 21.3433 15.0657 21.3433ZM18.5053 15.6546C17.1505 14.8753 15.8253 14.1131 14.4872 13.3435C14.4872 14.8965 14.4872 16.4233 14.4872 17.9669C15.8297 17.1944 17.1553 16.4315 18.5053 15.6546Z" fill="white" stroke="white"/>
</svg>
