<svg width="32" height="32" viewBox="0 0 32 32" fill="none" xmlns="http://www.w3.org/2000/svg">
<circle cx="15.8209" cy="15.8209" r="15.3209" stroke="white"/>
<path fill-rule="evenodd" clip-rule="evenodd" d="M9.97714 21.0695C10.0318 20.8522 10.1232 20.6197 10.1979 20.4037C10.2703 20.1949 10.3454 19.9696 10.4164 19.7594C10.493 19.5322 10.5659 19.326 10.6403 19.102C10.6772 18.9912 10.713 18.8808 10.7513 18.772C10.812 18.6007 10.7789 18.6205 10.6916 18.493C8.98028 15.9988 9.25687 12.7371 11.014 10.6783L11.4267 10.2075C11.8606 9.78047 12.3697 9.38295 12.9124 9.08269C13.6965 8.64864 14.5571 8.35806 15.5976 8.26491C17.7884 8.06724 19.6533 9.03575 20.7202 10.0737C21.9944 11.3139 22.8393 13.0739 22.7486 15.0281C22.6581 16.9823 21.8612 18.4945 20.4868 19.7306C19.2994 20.798 17.3386 21.5967 15.1515 21.2776C14.2917 21.152 13.3012 20.7951 12.6019 20.325C12.4767 20.2411 12.4538 20.2851 12.2914 20.3383L9.97714 21.0695V21.0695ZM14.9478 13.2691C14.9844 13.1128 14.7537 12.6555 14.6888 12.5019C14.618 12.3345 14.2936 11.5283 14.2229 11.4143C14.14 11.2805 14.0824 11.2583 13.877 11.2472C13.5514 11.23 13.2338 11.2684 13.0287 11.4344C12.6509 11.7405 12.3748 12.3081 12.3236 12.8159C12.2577 13.4714 12.4777 13.9899 12.7238 14.4694C12.8877 14.7885 13.3524 15.4149 13.5851 15.699C13.7509 15.9027 13.8802 16.0484 14.068 16.2516C14.2478 16.4471 14.3707 16.5579 14.5883 16.7682L14.8788 17.0157C15.1285 17.2283 15.521 17.4749 15.8039 17.6467C16.1674 17.869 16.8176 18.1192 17.2696 18.2573C17.8689 18.4417 18.3916 18.5741 19.017 18.3294C19.7211 18.0543 20.1065 17.6295 20.1402 16.8446C20.1494 16.6324 20.1416 16.569 19.9809 16.486C19.7492 16.3665 19.5163 16.2601 19.2826 16.1466C19.0431 16.0292 18.8184 15.9223 18.5782 15.8134C18.0579 15.5785 18.0333 15.7943 17.6667 16.2833C17.3103 16.758 17.2454 16.7747 16.6601 16.5107C16.1537 16.2814 15.7512 15.9835 15.4076 15.6883C15.3127 15.6083 15.2259 15.5025 15.1412 15.4178C14.9671 15.2422 14.819 15.0573 14.6673 14.8553C14.2478 14.2957 14.188 14.1914 14.5032 13.8718C14.6093 13.7651 14.9022 13.4617 14.9478 13.2691V13.2691ZM8 23L9.62152 22.49C10.4259 22.2207 11.2399 21.9826 12.0453 21.7199C12.4319 21.5936 12.2675 21.6023 12.798 21.852C14.9876 22.8819 17.5855 22.8309 19.7324 21.7366C20.4302 21.3809 21.0378 20.9463 21.5958 20.4102C21.8668 20.1499 22.1278 19.8733 22.3554 19.5762C22.4347 19.4729 22.5049 19.3807 22.5842 19.2682C23.3464 18.1785 23.8988 16.8182 23.9854 15.3487C24.1259 12.9614 23.2432 10.7386 21.6278 9.21286C21.4427 9.03866 21.271 8.89034 21.0663 8.71759C20.5365 8.27144 19.7063 7.80352 19.0318 7.54318C16.7405 6.65741 14.2283 6.86452 12.1297 8.09458C11.7687 8.3058 11.1796 8.71856 10.8999 8.99704C10.8542 9.04325 10.8145 9.06963 10.764 9.11148C10.5379 9.29899 10.0615 9.84386 9.8725 10.101C8.47124 12.0037 7.9039 14.3591 8.53758 16.766C8.68929 17.3428 9.00272 18.1497 9.30688 18.6432C9.42493 18.8358 9.41981 18.7979 9.34517 19.0221C9.25639 19.2895 9.16492 19.5605 9.07467 19.8237L8.26903 22.1989C8.1844 22.4534 8.06317 22.7508 8 23V23Z" fill="white"/>
</svg>
