<svg width="325" height="113" viewBox="0 0 325 113" fill="none" xmlns="http://www.w3.org/2000/svg">
<path d="M132.934 98.234C133.326 98.0269 133.684 97.8747 134.282 97.8747C135.249 97.8747 135.39 98.5059 135.39 99.4204C135.064 99.1811 134.554 99.1046 134.173 99.1046C133.119 99.1046 132.326 99.6601 132.326 100.661C132.326 101.608 132.934 102.174 133.825 102.174C134.63 102.174 135.097 101.837 135.39 101.467V102.098H136.216V99.0937C136.216 97.8203 135.727 97.0911 134.336 97.0911C133.727 97.0911 133.141 97.2651 132.706 97.5374L132.934 98.234ZM134.13 101.391C133.565 101.391 133.249 101.086 133.249 100.618C133.249 100.052 133.771 99.8124 134.293 99.8124C134.716 99.8124 135.086 99.9212 135.39 100.139V100.76C135.14 101.053 134.771 101.391 134.13 101.391ZM142.261 102.098H143.13V97.1998H142.261V99.2138H139.544V97.1998H138.675V102.098H139.544V100.03H142.261V102.098ZM145.089 98.0704H146.882V102.098H147.751V98.0704H149.544V97.1998H145.089V98.0704ZM152.362 102.098L155.187 98.4516V102.098H156.056V97.1998H155.187L152.362 100.847V97.1998H151.492V102.098H152.362ZM162.395 100.76C162.068 101.129 161.579 101.391 160.993 101.391C160.025 101.391 159.232 100.727 159.232 99.6489C159.232 98.6151 160.025 97.9073 160.906 97.9073C161.417 97.9073 161.895 98.0382 162.308 98.4189L162.71 97.7332C162.253 97.276 161.569 97.0911 160.786 97.0911C159.352 97.0911 158.309 98.2231 158.309 99.6489C158.309 101.195 159.373 102.207 160.927 102.207C161.677 102.207 162.395 101.924 162.808 101.391L162.395 100.76ZM164.255 98.0704H166.048V102.098H166.918V98.0704H168.711V97.1998H164.255V98.0704ZM170.659 104.275H171.528V101.87C171.876 102.098 172.387 102.207 172.909 102.207C174.44 102.207 175.451 101.064 175.451 99.5727C175.451 98.1252 174.582 97.0911 173.191 97.0911C172.517 97.0911 171.865 97.3848 171.528 97.7768V97.1998H170.659V104.275ZM172.941 97.9073C173.951 97.9073 174.528 98.6151 174.528 99.6054C174.528 100.64 173.875 101.391 172.832 101.391C172.365 101.391 171.963 101.304 171.528 101.01V98.5821C171.832 98.2014 172.365 97.9073 172.941 97.9073ZM181.561 100.879C181.246 101.173 180.692 101.391 180.062 101.391C179.105 101.391 178.432 100.847 178.355 99.9212H182.115C182.148 99.7689 182.17 99.5727 182.17 99.3334C182.17 97.9834 181.159 97.0911 179.898 97.0911C178.29 97.0911 177.377 98.2231 177.377 99.6489C177.377 101.195 178.41 102.207 179.996 102.207C180.648 102.207 181.355 102 181.833 101.565L181.561 100.879ZM179.855 97.9073C180.703 97.9073 181.224 98.408 181.268 99.2138H178.301C178.399 98.4624 178.964 97.9073 179.855 97.9073ZM188.051 100.76C187.725 101.129 187.236 101.391 186.65 101.391C185.682 101.391 184.889 100.727 184.889 99.6489C184.889 98.6151 185.682 97.9073 186.563 97.9073C187.073 97.9073 187.551 98.0382 187.964 98.4189L188.366 97.7332C187.91 97.276 187.225 97.0911 186.443 97.0911C185.009 97.0911 183.965 98.2231 183.965 99.6489C183.965 101.195 185.03 102.207 186.584 102.207C187.334 102.207 188.051 101.924 188.464 101.391L188.051 100.76ZM194.096 100.76C193.77 101.129 193.281 101.391 192.694 101.391C191.727 101.391 190.934 100.727 190.934 99.6489C190.934 98.6151 191.727 97.9073 192.607 97.9073C193.118 97.9073 193.596 98.0382 194.009 98.4189L194.411 97.7332C193.955 97.276 193.27 97.0911 192.488 97.0911C191.053 97.0911 190.01 98.2231 190.01 99.6489C190.01 101.195 191.075 102.207 192.629 102.207C193.379 102.207 194.096 101.924 194.509 101.391L194.096 100.76ZM196.457 99.5401H199.054V98.7239H196.457V99.5401ZM205.544 100.76C205.218 101.129 204.729 101.391 204.142 101.391C203.175 101.391 202.382 100.727 202.382 99.6489C202.382 98.6151 203.175 97.9073 204.055 97.9073C204.566 97.9073 205.044 98.0382 205.457 98.4189L205.859 97.7332C205.403 97.276 204.718 97.0911 203.936 97.0911C202.501 97.0911 201.458 98.2231 201.458 99.6489C201.458 101.195 202.523 102.207 204.077 102.207C204.827 102.207 205.544 101.924 205.957 101.391L205.544 100.76ZM207.405 98.0704H209.198V102.098H210.067V98.0704H211.861V97.1998H207.405V98.0704ZM213.319 99.6489C213.319 101.119 214.363 102.207 215.927 102.207C217.492 102.207 218.536 101.119 218.536 99.6489C218.536 98.1796 217.492 97.0911 215.927 97.0911C214.363 97.0911 213.319 98.1796 213.319 99.6489ZM214.243 99.6489C214.243 98.6151 214.971 97.9073 215.927 97.9073C216.906 97.9073 217.612 98.6256 217.612 99.6489C217.612 100.694 216.906 101.391 215.927 101.391C214.949 101.391 214.243 100.672 214.243 99.6489ZM220.788 102.098H221.657V98.5277L223.418 100.803H223.45L225.145 98.5277V102.098H226.015V97.1998H225.243L223.461 99.6271L221.581 97.1998H220.788V102.098ZM228.854 98.234C229.245 98.0269 229.604 97.8747 230.201 97.8747C231.169 97.8747 231.31 98.5059 231.31 99.4204C230.984 99.1811 230.473 99.1046 230.092 99.1046C229.039 99.1046 228.245 99.6601 228.245 100.661C228.245 101.608 228.854 102.174 229.745 102.174C230.549 102.174 231.016 101.837 231.31 101.467V102.098H232.135V99.0937C232.135 97.8203 231.646 97.0911 230.256 97.0911C229.647 97.0911 229.06 97.2651 228.626 97.5374L228.854 98.234ZM230.049 101.391C229.484 101.391 229.169 101.086 229.169 100.618C229.169 100.052 229.691 99.8124 230.212 99.8124C230.636 99.8124 231.005 99.9212 231.31 100.139V100.76C231.06 101.053 230.69 101.391 230.049 101.391ZM233.975 98.0704H235.768V102.098H236.637V98.0704H238.43V97.1998H233.975V98.0704ZM239.889 99.6489C239.889 101.119 240.932 102.207 242.497 102.207C244.062 102.207 245.105 101.119 245.105 99.6489C245.105 98.1796 244.062 97.0911 242.497 97.0911C240.932 97.0911 239.889 98.1796 239.889 99.6489ZM240.813 99.6489C240.813 98.6151 241.541 97.9073 242.497 97.9073C243.475 97.9073 244.182 98.6256 244.182 99.6489C244.182 100.694 243.475 101.391 242.497 101.391C241.519 101.391 240.813 100.672 240.813 99.6489ZM250.509 102.098H251.378V97.1998H247.977L247.89 98.7239C247.771 100.988 247.075 101.347 246.706 101.314L246.771 102.164C247.781 102.164 248.52 101.685 248.737 98.8979L248.792 98.0704H250.509V102.098ZM253.619 99.6489C253.619 101.119 254.663 102.207 256.227 102.207C257.792 102.207 258.836 101.119 258.836 99.6489C258.836 98.1796 257.792 97.0911 256.227 97.0911C254.663 97.0911 253.619 98.1796 253.619 99.6489ZM254.543 99.6489C254.543 98.6151 255.271 97.9073 256.227 97.9073C257.205 97.9073 257.912 98.6256 257.912 99.6489C257.912 100.694 257.205 101.391 256.227 101.391C255.249 101.391 254.543 100.672 254.543 99.6489ZM261.088 102.098H261.957V98.0164H264.185V97.1998H261.088V102.098ZM266.893 102.098L269.719 98.4516V102.098H270.588V97.1998H269.719L266.893 100.847V97.1998H266.024V102.098H266.893ZM275.307 97.1998C273.677 97.1998 273.123 97.9947 273.123 98.8327C273.123 99.6384 273.677 100.128 274.177 100.248L272.764 102.098H273.818L275.014 100.465H275.959V102.098H276.828V97.1998H275.307ZM274.046 98.8544C274.046 98.3972 274.351 98.0164 275.166 98.0164H275.959V99.6489H274.959C274.525 99.6489 274.046 99.3552 274.046 98.8544Z" fill="white"/>
<path d="M144.364 51.3183H132.377V26.2219H143.648C146.225 26.2219 148.295 26.8792 149.869 28.1993C151.443 29.5194 152.23 31.0671 152.23 32.8526C152.23 33.5403 152.117 34.1968 151.896 34.8246C151.676 35.4454 151.407 35.9473 151.091 36.3176C150.775 36.6944 150.465 37.0165 150.155 37.2915C149.851 37.5662 149.577 37.7573 149.344 37.877L149.016 38.0506C149.129 38.098 149.29 38.1633 149.493 38.2534C149.696 38.3432 150.054 38.5463 150.566 38.8684C151.079 39.1854 151.532 39.5494 151.932 39.962C152.326 40.368 152.683 40.9293 153.005 41.6403C153.327 42.3516 153.489 43.1278 153.489 43.97C153.489 45.93 152.63 47.6444 150.924 49.1136C149.219 50.5833 147.036 51.3183 144.364 51.3183ZM139.176 45.9475H143.821C144.614 45.9475 145.264 45.7085 145.766 45.2249C146.267 44.747 146.517 44.1491 146.517 43.4328C146.517 42.7156 146.267 42.1181 145.766 41.6403C145.264 41.1628 144.614 40.9239 143.821 40.9239H139.176V45.9475ZM142.933 31.6102H139.176V35.8996H142.933C143.643 35.8996 144.209 35.7026 144.626 35.3145C145.044 34.9202 145.259 34.4 145.259 33.7547C145.259 33.1094 145.044 32.59 144.626 32.1961C144.209 31.8076 143.643 31.6102 142.933 31.6102ZM165.195 33.6471C163.83 35.0095 163.15 36.7177 163.15 38.7666C163.15 40.8225 163.83 42.5303 165.195 43.8989C166.555 45.2602 168.26 45.9475 170.312 45.9475C171.583 45.9475 172.781 45.679 173.914 45.1413C175.041 44.6033 175.858 44.0598 176.359 43.5101L177.111 42.7094L181.04 47.0111C180.945 47.1545 180.808 47.3336 180.629 47.5667C180.45 47.7936 180.027 48.1937 179.371 48.7733C178.715 49.3467 178.005 49.8603 177.242 50.3024C176.478 50.7445 175.471 51.1447 174.218 51.5032C172.966 51.856 171.666 52.0351 170.312 52.0351C166.424 52.0351 163.126 50.7329 160.412 48.1222C157.705 45.5178 156.351 42.3994 156.351 38.7666C156.351 35.1408 157.705 32.0224 160.412 29.4122C163.126 26.807 166.424 25.5051 170.312 25.5051C171.654 25.5051 172.93 25.678 174.141 26.0308C175.351 26.3773 176.347 26.7957 177.134 27.2914C177.922 27.7813 178.607 28.2712 179.198 28.7607C179.782 29.2506 180.205 29.669 180.462 30.0213L180.867 30.5287L176.741 34.83C176.669 34.7403 176.58 34.6214 176.461 34.4722C176.347 34.3289 176.079 34.0717 175.662 33.7011C175.238 33.3371 174.803 33.008 174.35 32.7213C173.896 32.4346 173.3 32.1778 172.561 31.9509C171.821 31.7237 171.069 31.6102 170.312 31.6102C168.26 31.6102 166.555 32.2913 165.195 33.6471ZM191.417 45.5772H204.293V51.3183H184.619V26.2219H203.947V31.9626H191.417V35.8996H201.078V41.2879H191.417V45.5772Z" fill="white"/>
<path d="M222.031 39.0218L226.852 45.7431H223.775L220.42 41.0428L217.066 45.7431H213.971L218.806 39.0218L214.377 32.8394H217.459L220.42 37.0013L223.368 32.8394H226.458L222.031 39.0218ZM237.743 42.3419C238.539 41.5136 238.933 40.4965 238.933 39.2914C238.933 38.0906 238.539 37.0689 237.743 36.2399C236.947 35.4062 236.003 34.9948 234.912 34.9948C233.821 34.9948 232.872 35.4062 232.076 36.2399C231.275 37.0689 230.877 38.0906 230.877 39.2914C230.877 40.4965 231.275 41.5136 232.076 42.3419C232.872 43.1752 233.821 43.5924 234.912 43.5924C236.003 43.5924 236.947 43.1752 237.743 42.3419ZM230.202 44.005C228.869 42.6694 228.203 41.0968 228.203 39.2914C228.203 37.485 228.869 35.9128 230.202 34.5732C231.535 33.2337 233.105 32.5659 234.912 32.5659C236.719 32.5659 238.289 33.2337 239.622 34.5732C240.954 35.9128 241.621 37.485 241.621 39.2914C241.621 41.0968 240.954 42.6694 239.622 44.005C238.289 45.3395 236.719 46.0073 234.912 46.0073C233.105 46.0073 231.535 45.3395 230.202 44.005ZM251.398 46.0073C250.92 46.0073 250.45 45.9494 249.994 45.8324C249.542 45.7206 249.153 45.5772 248.83 45.4067C248.509 45.2365 248.222 45.0617 247.972 44.8826C247.721 44.7035 247.542 44.5598 247.426 44.4572L247.243 44.2602V51.3882H244.559V32.8394H247.243V34.3227C247.368 34.2011 247.538 34.0402 247.762 33.8382C247.985 33.637 248.459 33.3728 249.184 33.05C249.909 32.7275 250.647 32.5659 251.398 32.5659C253.102 32.5659 254.578 33.2201 255.835 34.5286C257.087 35.8366 257.714 37.4228 257.714 39.2868C257.714 41.1508 257.087 42.7362 255.835 44.0446C254.578 45.3534 253.102 46.0073 251.398 46.0073ZM253.849 36.2535C253.062 35.4108 252.158 34.9948 251.134 34.9948C250.115 34.9948 249.211 35.4108 248.424 36.2535C247.636 37.091 247.243 38.1038 247.243 39.2914C247.243 40.4783 247.636 41.4911 248.424 42.329C249.211 43.1713 250.115 43.5924 251.134 43.5924C252.158 43.5924 253.062 43.1713 253.849 42.329C254.636 41.4911 255.026 40.4783 255.026 39.2914C255.026 38.1038 254.636 37.091 253.849 36.2535ZM269.392 42.3419C270.188 41.5136 270.582 40.4965 270.582 39.2914C270.582 38.0906 270.188 37.0689 269.392 36.2399C268.596 35.4062 267.652 34.9948 266.561 34.9948C265.469 34.9948 264.521 35.4062 263.725 36.2399C262.924 37.0689 262.526 38.0906 262.526 39.2914C262.526 40.4965 262.924 41.5136 263.725 42.3419C264.521 43.1752 265.469 43.5924 266.561 43.5924C267.652 43.5924 268.596 43.1752 269.392 42.3419ZM261.851 44.005C260.518 42.6694 259.852 41.0968 259.852 39.2914C259.852 37.485 260.518 35.9128 261.851 34.5732C263.184 33.2337 264.754 32.5659 266.561 32.5659C268.368 32.5659 269.937 33.2337 271.27 34.5732C272.603 35.9128 273.27 37.485 273.27 39.2914C273.27 41.0968 272.603 42.6694 271.27 44.005C269.937 45.3395 268.368 46.0073 266.561 46.0073C264.754 46.0073 263.184 45.3395 261.851 44.005ZM276.208 45.7431V32.8394H278.892V43.3275H283.584V32.8394H286.272V43.3275H290.973V32.8394H293.647V45.7431H276.208ZM306.135 42.3419C306.931 41.5136 307.325 40.4965 307.325 39.2914C307.325 38.0906 306.931 37.0689 306.135 36.2399C305.339 35.4062 304.395 34.9948 303.304 34.9948C302.213 34.9948 301.265 35.4062 300.468 36.2399C299.668 37.0689 299.27 38.0906 299.27 39.2914C299.27 40.4965 299.668 41.5136 300.468 42.3419C301.265 43.1752 302.213 43.5924 303.304 43.5924C304.395 43.5924 305.339 43.1752 306.135 42.3419ZM298.594 44.005C297.261 42.6694 296.595 41.0968 296.595 39.2914C296.595 37.485 297.261 35.9128 298.594 34.5732C299.927 33.2337 301.497 32.5659 303.304 32.5659C305.111 32.5659 306.681 33.2337 308.014 34.5732C309.347 35.9128 310.013 37.485 310.013 39.2914C310.013 41.0968 309.347 42.6694 308.014 44.005C306.681 45.3395 305.111 46.0073 303.304 46.0073C301.497 46.0073 299.927 45.3395 298.594 44.005Z" fill="white"/>
<path d="M141.05 67.0983C139.684 68.4607 139.004 70.1689 139.004 72.2182C139.004 74.2733 139.684 75.9815 141.05 77.3494C142.409 78.7118 144.115 79.3986 146.167 79.3986C147.437 79.3986 148.635 79.1298 149.769 78.5921C150.896 78.0545 151.713 77.5106 152.213 76.9613L152.965 76.1606L156.895 80.4623C156.799 80.6053 156.662 80.7844 156.483 81.0175C156.304 81.2447 155.881 81.6449 155.225 82.2241C154.569 82.7975 153.859 83.3115 153.096 83.7536C152.333 84.1953 151.325 84.5959 150.073 84.9544C148.82 85.3068 147.52 85.4859 146.167 85.4859C142.278 85.4859 138.98 84.1833 136.267 81.573C133.559 78.9686 132.205 75.8506 132.205 72.2182C132.205 68.5916 133.559 65.4736 136.267 62.8633C138.98 60.2581 142.278 58.9563 146.167 58.9563C147.508 58.9563 148.784 59.1292 149.995 59.4819C151.206 59.8285 152.202 60.2469 152.989 60.7426C153.776 61.2325 154.462 61.7223 155.052 62.2122C155.637 62.7017 156.06 63.1201 156.316 63.4721L156.722 63.9799L152.595 68.2808C152.524 68.1915 152.434 68.0726 152.315 67.923C152.202 67.7797 151.933 67.5229 151.516 67.1519C151.092 66.7879 150.657 66.4592 150.204 66.1725C149.75 65.8858 149.154 65.6294 148.415 65.4021C147.675 65.1749 146.924 65.061 146.167 65.061C144.115 65.061 142.409 65.7424 141.05 67.0983ZM172.46 84.7695H160.473V59.6727H171.744C174.321 59.6727 176.39 60.33 177.965 61.6501C179.539 62.9702 180.326 64.5179 180.326 66.3038C180.326 66.9907 180.213 67.6476 179.992 68.2754C179.771 68.8966 179.503 69.3985 179.187 69.7684C178.871 70.1456 178.561 70.4676 178.251 70.7427C177.947 71.017 177.672 71.2081 177.44 71.3282L177.112 71.5014C177.225 71.5488 177.386 71.6145 177.589 71.7042C177.792 71.7943 178.149 71.9967 178.662 72.3196C179.175 72.6362 179.628 73.0002 180.028 73.4132C180.421 73.8191 180.779 74.3805 181.101 75.0915C181.423 75.8028 181.584 76.579 181.584 77.4212C181.584 79.3812 180.726 81.0952 179.02 82.5644C177.315 84.0345 175.132 84.7695 172.46 84.7695ZM167.272 79.3986H171.917C172.71 79.3986 173.36 79.1597 173.861 78.6761C174.362 78.1978 174.613 77.6003 174.613 76.8839C174.613 76.1668 174.362 75.5689 173.861 75.0915C173.36 74.6136 172.71 74.3751 171.917 74.3751H167.272V79.3986ZM171.029 65.061H167.272V69.3507H171.029C171.738 69.3507 172.305 69.1538 172.722 68.7653C173.14 68.3714 173.355 67.8512 173.355 67.2059C173.355 66.5606 173.14 66.0412 172.722 65.6469C172.305 65.2584 171.738 65.061 171.029 65.061ZM193.428 67.0983C192.086 68.4607 191.419 70.1689 191.419 72.2182C191.419 74.2733 192.086 75.9815 193.428 77.3494C194.77 78.7118 196.428 79.3986 198.408 79.3986C200.388 79.3986 202.046 78.7118 203.382 77.3494C204.711 75.9815 205.379 74.2733 205.379 72.2182C205.379 70.1689 204.711 68.4607 203.382 67.0983C202.046 65.7424 200.388 65.061 198.408 65.061C196.428 65.061 194.77 65.7424 193.428 67.0983ZM208.29 62.8692C210.997 65.4736 212.351 68.5916 212.351 72.2182C212.351 75.8506 210.997 78.9686 208.29 81.573C205.582 84.1833 202.284 85.4859 198.402 85.4859C194.513 85.4859 191.222 84.1833 188.508 81.573C185.801 78.9686 184.447 75.8506 184.447 72.2182C184.447 68.5916 185.801 65.4736 188.508 62.8633C191.222 60.2581 194.513 58.9563 198.402 58.9563C202.284 58.9563 205.582 60.2581 208.29 62.8692ZM216.645 59.6727H223.444V73.6579L234.172 59.6727H240.076V84.7695H233.283V70.7847L222.519 84.7695H216.645V59.6727Z" fill="white"/>
<path d="M257.381 79.5231C256.902 79.5231 256.433 79.4649 255.976 79.3487C255.525 79.2368 255.136 79.0935 254.813 78.9229C254.492 78.7528 254.205 78.5779 253.955 78.3989C253.704 78.2198 253.525 78.0764 253.409 77.9735L253.226 77.7761V84.9045H250.542V66.3553H253.226V67.8385C253.351 67.7173 253.521 67.5565 253.745 67.3545C253.968 67.1529 254.442 66.8887 255.167 66.5662C255.891 66.2434 256.629 66.0818 257.381 66.0818C259.085 66.0818 260.561 66.7364 261.818 68.0444C263.07 69.3529 263.697 70.9387 263.697 72.803C263.697 74.6662 263.07 76.2524 261.818 77.5609C260.561 78.8693 259.085 79.5231 257.381 79.5231ZM259.832 69.7697C259.045 68.9271 258.141 68.5106 257.117 68.5106C256.097 68.5106 255.194 68.9271 254.407 69.7697C253.619 70.6069 253.226 71.6201 253.226 72.8073C253.226 73.9942 253.619 75.007 254.407 75.8449C255.194 76.6868 256.097 77.1083 257.117 77.1083C258.141 77.1083 259.045 76.6868 259.832 75.8449C260.619 75.007 261.008 73.9942 261.008 72.8073C261.008 71.6201 260.619 70.6069 259.832 69.7697ZM270.933 66.3553H276.828V79.259H274.153V75.2311H271.336L268.782 79.259H265.834L268.652 74.8236C268.581 74.8053 268.487 74.7653 268.37 74.702C268.25 74.6441 268.048 74.505 267.762 74.2906C267.471 74.0754 267.216 73.8287 266.993 73.5509C266.769 73.2685 266.568 72.8835 266.38 72.3862C266.192 71.8932 266.098 71.3598 266.098 70.7911C266.098 69.5048 266.541 68.443 267.427 67.6101C268.312 66.7721 269.48 66.3553 270.933 66.3553ZM274.153 68.6404H270.933C270.32 68.6404 269.811 68.8467 269.399 69.2585C268.988 69.6664 268.782 70.1815 268.782 70.7911C268.782 71.4049 268.988 71.9153 269.399 72.3279C269.811 72.7397 270.32 72.9464 270.933 72.9464H274.153V68.6404ZM278.703 76.8441H279.633C279.682 76.7905 279.762 76.7054 279.861 76.5889C279.959 76.4673 280.138 76.2035 280.384 75.7952C280.635 75.3838 280.854 74.9401 281.042 74.4607C281.229 73.9856 281.399 73.3578 281.552 72.5789C281.704 71.7992 281.78 70.9791 281.78 70.1232V66.3553H291.177V76.8441H293.051V82.4897H290.376V79.259H281.386V82.4897H278.703V76.8441ZM284.468 68.7705V70.1232C284.468 70.9791 284.396 71.7945 284.248 72.5653C284.105 73.3361 283.927 73.972 283.712 74.4736C283.497 74.9755 283.287 75.4149 283.072 75.7824C282.857 76.1499 282.679 76.4094 282.54 76.5663L282.316 76.8441H288.489V68.7705H284.468ZM304.479 75.8585C305.275 75.0295 305.669 74.0124 305.669 72.8073C305.669 71.6065 305.275 70.5852 304.479 69.7561C303.683 68.9224 302.739 68.5106 301.648 68.5106C300.556 68.5106 299.608 68.9224 298.812 69.7561C298.011 70.5852 297.613 71.6065 297.613 72.8073C297.613 74.0124 298.011 75.0295 298.812 75.8585C299.608 76.6914 300.556 77.1083 301.648 77.1083C302.739 77.1083 303.683 76.6914 304.479 75.8585ZM296.938 77.5209C295.605 76.1852 294.938 74.6126 294.938 72.8073C294.938 71.0012 295.605 69.4286 296.938 68.0895C298.271 66.7496 299.841 66.0818 301.648 66.0818C303.455 66.0818 305.025 66.7496 306.357 68.0895C307.69 69.4286 308.356 71.0012 308.356 72.8073C308.356 74.6126 307.69 76.1852 306.357 77.5209C305.025 78.8557 303.455 79.5231 301.648 79.5231C299.841 79.5231 298.271 78.8557 296.938 77.5209ZM318.134 72.0004L322.839 66.3553H324.986V79.259H322.302V70.7911L318.134 75.7688L313.979 70.7911V79.259H311.295V66.3553H313.442L318.134 72.0004Z" fill="white"/>
<path fill-rule="evenodd" clip-rule="evenodd" d="M55.9998 0C60.9884 0 65.8234 0.656548 70.4265 1.88262C46.7196 0.76649 23.6867 5.80909 10.0256 32.7435C6.4689 39.7557 4.46385 47.691 4.46385 56.0956C4.46385 75.9307 15.5564 93.2966 32.0106 101.798C62.8057 117.71 93.1304 106.253 109.409 73.0027C102.249 95.7208 81.0455 112.192 55.9998 112.192C25.072 112.192 0 87.0773 0 56.0956C0 25.1147 25.072 0 55.9998 0ZM76.5172 48.1296C76.5793 46.2256 76.5378 49.067 76.5378 47.1572V36.3195C76.5378 35.3708 76.5684 34.3693 76.5335 33.4272C74.0712 33.6347 71.8443 34.7803 70.1969 36.4314C69.0857 37.5456 68.1837 38.8703 67.614 40.5847C66.5203 43.8753 67.8152 45.1891 66.1623 49.0942C65.4127 50.8646 64.4644 51.8626 63.5395 52.4166C62.2391 53.1951 61.2827 53.0766 60.3927 53.0848C60.3927 53.0848 60.5195 53.1341 60.6975 53.1846C61.8905 53.5265 62.3322 53.645 63.5057 54.1341C66.148 55.2343 69.9572 56.3497 73.1525 54.2095C75.0039 52.9702 76.5409 49.954 76.5172 48.1296ZM34.6745 94.1388C35.8671 94.1789 38.0343 93.3156 39.0217 92.7228C41.4428 91.2687 43.2447 88.9175 43.878 86.0563C44.2623 84.3213 44.1433 82.3381 44.1409 80.5071C44.1386 79.1412 44.0766 75.9404 44.1708 74.7761C44.3042 73.1297 44.8165 71.5346 45.5022 70.3034C46.0479 69.3233 46.6121 68.5886 47.3129 67.7911C47.956 67.0592 48.834 66.3809 49.6833 65.8393C53.1082 63.6564 57.6135 63.6171 61.0213 65.4683C64.0727 67.1264 66.447 70.2471 66.9698 73.9584C67.1191 75.0236 67.0947 75.8367 67.0989 76.5737C67.13 81.8385 73.1843 84.4025 76.5378 84.6776C76.5401 82.5067 76.5378 80.335 76.5378 78.1641C76.5378 75.9929 76.5839 74.0904 76.2054 71.9926C75.5578 68.4029 73.9929 65.3327 72.2512 62.9804C69.4778 59.2358 65.0958 56.4666 60.5013 55.2864C59.1113 54.9293 57.6143 54.7273 56.1592 54.7736C55.6802 54.7891 55.0186 54.833 54.5482 54.8023C56.3927 54.037 59.9893 53.3933 60.3841 46.5854C60.6165 42.5738 60.4416 37.8195 60.4435 33.6999C59.2203 33.7139 57.1408 34.4664 56.2534 34.9707C53.9358 36.2861 52.2895 38.2861 51.4134 40.8648C50.3686 43.9378 51.4033 47.7959 50.4656 49.4998C48.9546 52.2468 44.8417 51.5926 44.1964 48.5387C44.0533 47.8612 44.1231 46.6514 44.1227 45.9001L44.1293 38.058C44.1941 28.8644 49.3901 28.474 53.769 27.3664C56.3597 26.4837 58.3849 24.9414 59.6962 22.5623C60.2604 21.5387 60.8724 19.8406 60.9601 18.4731C60.3415 18.4199 54.3519 18.4649 53.5557 18.4649C42.5509 18.2792 34.5985 25.0288 34.6137 36.3902C34.6187 40.0762 34.6761 43.768 34.6807 47.4501C34.6838 50.074 34.6369 51.7025 35.6057 53.9414C36.3119 55.5762 37.5875 56.9681 39.0186 57.9487C39.8667 58.5299 42.0327 59.674 42.0327 59.674C42.0327 59.674 41.0539 60.5551 40.6098 61.0407C39.012 62.7862 37.9233 64.37 36.7998 66.5258C36.0071 68.0459 35.3017 70.2102 34.9751 72.1231C34.5753 74.4634 34.6742 76.8305 34.6742 79.2457L34.6745 94.1388Z" fill="white"/>
<path fill-rule="evenodd" clip-rule="evenodd" d="M82.3617 9.84692C107.58 22.2409 117.775 52.331 105.132 77.0552C103.979 79.3096 102.675 81.4401 101.24 83.4432C107.753 67.5015 110.04 54.5197 101.836 38.1802C97.2965 29.1401 89.4039 21.3936 79.0575 16.3079C70.0037 11.8585 60.4086 10.1041 51.3816 10.9697C29.4727 13.0714 20.3402 25 10.9161 39.0501C11.6952 36.7242 12.6555 34.4251 13.8081 32.1703C26.4507 7.44644 57.1435 -2.54824 82.3617 9.84692Z" fill="white"/>
</svg>
